<?xml version="1.0" encoding="iso-8859-1"?>
<!-- Generator: Adobe Illustrator 19.0.0, SVG Export Plug-In . SVG Version: 6.00 Build 0)  -->
<svg version="1.1" id="Capa_1" xmlns="http://www.w3.org/2000/svg" xmlns:xlink="http://www.w3.org/1999/xlink" x="0px" y="0px"
	 viewBox="0 0 512 512" style="enable-background:new 0 0 512 512;" xml:space="preserve">
<g>
	<rect x="169.22" y="390.508" style="fill:#364061;" width="173.559" height="112.814"/>
	<path style="fill:#364061;" d="M21.695,390.508H169.22H342.78h147.525c9.546,0,17.356-7.81,17.356-17.356v-52.068H4.339v52.068
		C4.339,382.698,12.149,390.508,21.695,390.508z"/>
	<path style="fill:#364061;" d="M507.661,17.356C507.661,7.81,499.851,0,490.305,0H21.695C12.149,0,4.339,7.81,4.339,17.356v303.729
		h503.322V17.356z M464.271,286.373H47.729c-5.207,0-8.678-3.471-8.678-8.678V43.39c0-5.207,3.471-8.678,8.678-8.678h416.542
		c5.207,0,8.678,3.471,8.678,8.678v234.305C472.949,282.902,469.478,286.373,464.271,286.373z"/>
</g>
<path style="fill:#DDDDDB;" d="M47.729,286.373h416.542c5.207,0,8.678-3.471,8.678-8.678V43.39c0-5.207-3.471-8.678-8.678-8.678
	H47.729c-5.207,0-8.678,3.471-8.678,8.678v234.305C39.051,282.902,42.522,286.373,47.729,286.373z"/>
<g>
	<circle style="fill:#841F19;" cx="221.288" cy="121.492" r="17.356"/>
	<circle style="fill:#841F19;" cx="290.712" cy="190.915" r="17.356"/>
</g>
<path style="fill:#364061;" d="M386.169,512H125.831c-5.207,0-8.678-3.471-8.678-8.678l0,0c0-5.207,3.471-8.678,8.678-8.678h260.339
	c5.207,0,8.678,3.471,8.678,8.678l0,0C394.847,508.529,391.376,512,386.169,512z"/>
<g style="opacity:0.3;enable-background:new    ;">
	<rect x="4.339" y="312.407" width="503.322" height="17.356"/>
</g>
<path style="fill:#DDDDDB;" d="M264.678,364.475h-17.356c-5.207,0-8.678-3.471-8.678-8.678l0,0c0-5.207,3.471-8.678,8.678-8.678
	h17.356c5.207,0,8.678,3.471,8.678,8.678l0,0C273.356,361.003,269.885,364.475,264.678,364.475z"/>
<g style="opacity:0.3;enable-background:new    ;">
	<polygon points="169.22,390.508 177.898,399.186 334.102,399.186 342.78,390.508 	"/>
</g>
<g style="opacity:0.3;enable-background:new    ;">
	<polygon points="177.898,485.966 169.22,494.644 342.78,494.644 334.102,485.966 	"/>
</g>
<path style="fill:#841F19;" d="M203.932,208.271L203.932,208.271c-3.471-3.471-3.471-8.678,0-12.149l91.986-91.986
	c3.471-3.471,8.678-3.471,12.149,0l0,0c3.471,3.471,3.471,8.678,0,12.149l-91.986,91.986
	C212.61,211.742,207.403,211.742,203.932,208.271z"/>
<g>
	<path style="fill:#DB8D07;" d="M169.22,199.593H73.763c-5.207,0-8.678-3.471-8.678-8.678v-69.424c0-5.207,3.471-8.678,8.678-8.678
		h95.458c5.207,0,8.678,3.471,8.678,8.678l0,0c0,5.207-3.471,8.678-8.678,8.678H91.119c-5.207,0-8.678,3.471-8.678,8.678v34.712
		c0,5.207,3.471,8.678,8.678,8.678h78.102c5.207,0,8.678,3.471,8.678,8.678l0,0C177.898,196.122,174.427,199.593,169.22,199.593z"/>
	<path style="fill:#DB8D07;" d="M438.237,199.593H342.78c-5.207,0-8.678-3.471-8.678-8.678l0,0c0-5.207,3.471-8.678,8.678-8.678
		h78.102c5.207,0,8.678-3.471,8.678-8.678v-34.712c0-5.207-3.471-8.678-8.678-8.678H342.78c-5.207,0-8.678-3.471-8.678-8.678l0,0
		c0-5.207,3.471-8.678,8.678-8.678h95.458c5.207,0,8.678,3.471,8.678,8.678v69.424C446.915,196.122,443.444,199.593,438.237,199.593
		z"/>
</g>
<g>
</g>
<g>
</g>
<g>
</g>
<g>
</g>
<g>
</g>
<g>
</g>
<g>
</g>
<g>
</g>
<g>
</g>
<g>
</g>
<g>
</g>
<g>
</g>
<g>
</g>
<g>
</g>
<g>
</g>
</svg>
