<?xml version="1.0" encoding="iso-8859-1"?>
<!-- Generator: Adobe Illustrator 19.0.0, SVG Export Plug-In . SVG Version: 6.00 Build 0)  -->
<svg version="1.1" id="Layer_1" xmlns="http://www.w3.org/2000/svg" xmlns:xlink="http://www.w3.org/1999/xlink" x="0px" y="0px"
	 viewBox="0 0 512 512" style="enable-background:new 0 0 512 512;" xml:space="preserve">
<polygon style="fill:#CFDCE5;" points="451.076,97.735 361.115,97.735 350.293,283.113 461.898,283.113 "/>
<polygon style="fill:#BAC6CC;" points="361.113,97.734 388.681,97.734 384.481,283.11 350.293,283.11 "/>
<polygon style="fill:#FF6F52;" points="455.455,172.772 356.732,172.772 358.939,134.938 453.248,134.938 "/>
<polygon style="fill:#E25749;" points="387.832,134.938 386.974,172.772 356.732,172.772 358.939,134.938 "/>
<polygon style="fill:#CFDCE5;" points="11.691,283.113 149.779,194.208 149.779,283.113 287.868,194.208 287.868,283.113 
	501.623,283.113 501.623,502.541 11.691,502.541 "/>
<g>
	<rect x="51.415" y="332.299" style="fill:#FFFFFF;" width="139.975" height="58.643"/>
	<rect x="234.9" y="332.299" style="fill:#FFFFFF;" width="139.975" height="58.643"/>
</g>
<path style="fill:#415E72;" d="M413.661,9.459H101.544c-16.193,0-29.32,13.127-29.32,29.32c0,4.862,1.191,9.443,3.284,13.479H43.851
	c-16.193,0-29.32,13.127-29.32,29.32l0,0c0,16.193,13.127,29.32,29.32,29.32h117.28c16.193,0,29.32-13.127,29.32-29.32l0,0
	c0-4.862-1.191-9.443-3.284-13.479h226.495c16.193,0,29.32-13.127,29.32-29.32C442.982,22.586,429.855,9.459,413.661,9.459z"/>
<path d="M500.966,273.655H359.662l5.337-91.427h80.877l4.105,70.314c0.305,5.215,4.777,9.192,9.993,8.891
	c5.215-0.304,9.196-4.778,8.891-9.993l-9.005-154.256c-0.291-5.002-4.433-8.907-9.442-8.907h-89.961
	c-5.009,0-9.151,3.906-9.442,8.907l-10.302,176.472H296.67v-79.448c0-3.462-1.89-6.646-4.929-8.303
	c-3.039-1.658-6.741-1.523-9.65,0.351l-123.51,79.52v-71.568c0-3.462-1.89-6.646-4.929-8.303c-3.039-1.658-6.741-1.523-9.65,0.351
	L5.914,275.161c-2.704,1.742-4.338,4.737-4.338,7.953v109.083c0,5.224,4.235,9.459,9.459,9.459s9.459-4.235,9.459-9.459V288.273
	l119.172-76.727v71.567c0,3.462,1.89,6.646,4.929,8.303c3.039,1.658,6.741,1.523,9.65-0.351l123.51-79.52v71.567
	c0,5.224,4.235,9.459,9.459,9.459h204.296v200.511H20.493v-68.73c0-5.224-4.235-9.459-9.459-9.459s-9.459,4.235-9.459,9.459v78.188
	c0,5.224,4.235,9.459,9.459,9.459h489.931c5.224,0,9.459-4.235,9.459-9.459V283.113C510.424,277.89,506.189,273.655,500.966,273.655
	z M366.104,163.312l1.105-18.917h76.46l1.105,18.917H366.104z M441.496,107.194l1.067,18.284h-74.251l1.067-18.284H441.496z"/>
<path d="M190.739,400.395c5.224,0,9.459-4.235,9.459-9.459v-58.641c0-5.224-4.235-9.459-9.459-9.459H50.758
	c-5.224,0-9.459,4.235-9.459,9.459v58.641c0,5.224,4.235,9.459,9.459,9.459H190.739z M103.725,381.478v-39.724h34.048v39.724
	H103.725z M181.28,381.478h-24.591v-39.724h24.591V381.478z M60.217,341.754h24.591v39.724H60.217V341.754z"/>
<path d="M374.227,400.395c5.224,0,9.459-4.235,9.459-9.459v-58.641c0-5.224-4.235-9.459-9.459-9.459H234.246
	c-5.224,0-9.459,4.235-9.459,9.459v58.641c0,5.224,4.235,9.459,9.459,9.459H374.227z M364.768,381.478h-24.591v-22.069
	c0-5.224-4.235-9.459-9.459-9.459s-9.459,4.235-9.459,9.459v22.069h-34.047v-39.724h77.555V381.478z M243.704,341.754h24.591v39.724
	h-24.591V341.754z"/>
<path d="M43.194,120.357h117.28c21.383,0,38.779-17.396,38.779-38.779c0-1.343-0.071-2.685-0.211-4.021h213.963
	c21.383,0,38.779-17.396,38.779-38.779S434.387,0,413.004,0h-40.669c-5.224,0-9.459,4.235-9.459,9.459s4.235,9.459,9.459,9.459
	h40.669c10.952,0,19.862,8.91,19.862,19.862s-8.91,19.862-19.862,19.862H186.509c-3.303,0-6.368,1.724-8.083,4.546
	c-1.715,2.822-1.835,6.336-0.313,9.268c1.474,2.841,2.222,5.911,2.222,9.123c0,10.952-8.91,19.862-19.862,19.862H43.194
	c-10.952,0-19.862-8.91-19.862-19.862s8.91-19.862,19.862-19.862h31.659c3.303,0,6.368-1.723,8.083-4.545
	c1.715-2.822,1.835-6.336,0.314-9.268c-1.474-2.843-2.222-5.912-2.222-9.124c-0.001-10.952,8.909-19.862,19.861-19.862h239.29
	c5.224,0,9.459-4.235,9.459-9.459S345.401,0,340.177,0h-239.29C79.505,0,62.108,17.396,62.108,38.779
	c0,1.343,0.071,2.686,0.211,4.021H43.194c-21.383,0-38.779,17.396-38.779,38.779C4.415,102.961,21.811,120.357,43.194,120.357z"/>
<g>
</g>
<g>
</g>
<g>
</g>
<g>
</g>
<g>
</g>
<g>
</g>
<g>
</g>
<g>
</g>
<g>
</g>
<g>
</g>
<g>
</g>
<g>
</g>
<g>
</g>
<g>
</g>
<g>
</g>
</svg>
