<?xml version="1.0" encoding="iso-8859-1"?>
<!-- Generator: Adobe Illustrator 19.0.0, SVG Export Plug-In . SVG Version: 6.00 Build 0)  -->
<svg version="1.1" id="Capa_1" xmlns="http://www.w3.org/2000/svg" xmlns:xlink="http://www.w3.org/1999/xlink" x="0px" y="0px"
	 viewBox="0 0 512 512" style="enable-background:new 0 0 512 512;" xml:space="preserve">
<path style="fill:#EBF4D6;" d="M504,511.75H8c-4.418,0-8-3.582-8-8v-376c0-4.418,3.582-8,8-8h496c4.418,0,8,3.582,8,8v376
	C512,508.168,508.418,511.75,504,511.75z"/>
<path style="fill:#BAA9DA;" d="M359.5,127.75h-15v-56c0-31.154-25.346-56.5-56.5-56.5s-56.5,25.346-56.5,56.5v56h-15v-56
	c0-39.425,32.075-71.5,71.5-71.5s71.5,32.075,71.5,71.5V127.75z"/>
<path style="fill:#B7D96E;" d="M400,511.75H8c-4.418,0-8-3.582-8-8v-376c0-4.418,3.582-8,8-8h392V511.75z"/>
<path style="fill:#D6EAAD;" d="M512,127.75c0-4.418-3.582-8-8-8h-48v312l54.054,77.22c1.21-1.402,1.946-3.223,1.946-5.22V127.75z"/>
<polygon style="fill:#C9E393;" points="456,431.75 400,511.75 400,119.75 456,119.75 "/>
<path style="fill:#A38DCE;" d="M271.5,145.62V71.75c0-39.425-32.075-71.5-71.5-71.5s-71.5,32.075-71.5,71.5v73.87
	c-5.055,2.689-8.5,8.005-8.5,14.13c0,8.837,7.163,16,16,16s16-7.163,16-16c0-6.125-3.445-11.441-8.5-14.13V71.75
	c0-31.154,25.346-56.5,56.5-56.5s56.5,25.346,56.5,56.5v73.87c-5.055,2.689-8.5,8.005-8.5,14.13c0,8.837,7.163,16,16,16
	s16-7.163,16-16C280,153.625,276.555,148.309,271.5,145.62z"/>
<path style="fill:#98CC64;" d="M209.351,200.635l36.398,26.445c0.683,0.497,1.506,0.764,2.351,0.764h44.99
	c1.733,0,3.269,1.116,3.804,2.764l13.903,42.788c0.261,0.803,0.77,1.503,1.453,2l36.398,26.445c1.402,1.019,1.989,2.824,1.453,4.472
	l-13.903,42.788c-0.261,0.803-0.261,1.669,0,2.472l13.903,42.788c0.535,1.648-0.051,3.454-1.453,4.472l-36.398,26.445
	c-0.683,0.497-1.192,1.197-1.453,2l-13.903,42.788c-0.535,1.648-2.071,2.764-3.804,2.764H248.1c-0.845,0-1.668,0.267-2.351,0.764
	l-36.398,26.445c-1.402,1.019-3.3,1.019-4.702,0l-36.398-26.445c-0.683-0.497-1.506-0.764-2.351-0.764h-44.99
	c-1.733,0-3.269-1.116-3.804-2.764l-13.903-42.788c-0.261-0.803-0.77-1.503-1.453-2l-36.398-26.445
	c-1.402-1.019-1.989-2.824-1.453-4.472l13.903-42.788c0.261-0.803,0.261-1.669,0-2.472l-13.903-42.788
	c-0.535-1.648,0.051-3.454,1.453-4.472l36.398-26.445c0.683-0.497,1.192-1.197,1.453-2l13.903-42.788
	c0.535-1.648,2.071-2.764,3.804-2.764h44.99c0.845,0,1.668-0.267,2.351-0.764l36.398-26.445
	C206.051,199.616,207.949,199.616,209.351,200.635z"/>
<path style="fill:#EE6482;" d="M202.351,192.635l36.398,26.445c0.683,0.497,1.506,0.764,2.351,0.764h44.99
	c1.733,0,3.269,1.116,3.804,2.764l13.903,42.788c0.261,0.803,0.77,1.503,1.453,2l36.398,26.445c1.402,1.019,1.989,2.824,1.453,4.472
	l-13.903,42.788c-0.261,0.803-0.261,1.669,0,2.472l13.903,42.788c0.535,1.648-0.051,3.454-1.453,4.472l-36.398,26.445
	c-0.683,0.497-1.192,1.197-1.453,2l-13.903,42.788c-0.535,1.648-2.071,2.764-3.804,2.764H241.1c-0.845,0-1.668,0.267-2.351,0.764
	l-36.398,26.445c-1.402,1.019-3.3,1.019-4.702,0l-36.398-26.445c-0.683-0.497-1.506-0.764-2.351-0.764h-44.99
	c-1.733,0-3.269-1.116-3.804-2.764l-13.903-42.788c-0.261-0.803-0.77-1.503-1.453-2l-36.398-26.445
	c-1.402-1.019-1.989-2.824-1.453-4.472l13.903-42.788c0.261-0.803,0.261-1.669,0-2.472l-13.903-42.788
	c-0.535-1.648,0.051-3.454,1.453-4.472l36.398-26.445c0.683-0.497,1.192-1.197,1.453-2l13.903-42.788
	c0.535-1.648,2.071-2.764,3.804-2.764h44.99c0.845,0,1.668-0.267,2.351-0.764l36.398-26.445
	C199.051,191.616,200.949,191.616,202.351,192.635z"/>
<polygon style="fill:#F1839B;" points="167.997,440.831 128.44,440.831 116.216,403.21 84.214,379.958 96.438,342.337 
	84.214,304.716 116.216,281.465 128.44,243.843 167.997,243.843 200,220.592 232.003,243.843 271.56,243.843 283.784,281.465 
	315.786,304.716 303.562,342.337 315.786,379.958 283.784,403.21 271.56,440.831 232.003,440.831 200,464.082 "/>
<g>
	<path style="fill:#FFFFFF;" d="M152,399.25c-6.558,0-9.924-8.183-5.303-12.803l96-96c2.929-2.929,7.678-2.929,10.606,0
		c2.929,2.929,2.929,7.678,0,10.606l-96,96C155.839,398.518,153.919,399.25,152,399.25z"/>
	<path style="fill:#FFFFFF;" d="M240,399.25c-12.958,0-23.5-10.542-23.5-23.5s10.542-23.5,23.5-23.5s23.5,10.542,23.5,23.5
		S252.958,399.25,240,399.25z M240,367.25c-4.687,0-8.5,3.813-8.5,8.5s3.813,8.5,8.5,8.5s8.5-3.813,8.5-8.5
		S244.687,367.25,240,367.25z"/>
	<path style="fill:#FFFFFF;" d="M160,335.25c-12.958,0-23.5-10.542-23.5-23.5s10.542-23.5,23.5-23.5s23.5,10.542,23.5,23.5
		S172.958,335.25,160,335.25z M160,303.25c-4.687,0-8.5,3.813-8.5,8.5s3.813,8.5,8.5,8.5s8.5-3.813,8.5-8.5
		S164.687,303.25,160,303.25z"/>
</g>
<g>
</g>
<g>
</g>
<g>
</g>
<g>
</g>
<g>
</g>
<g>
</g>
<g>
</g>
<g>
</g>
<g>
</g>
<g>
</g>
<g>
</g>
<g>
</g>
<g>
</g>
<g>
</g>
<g>
</g>
</svg>
